# This file uses centimeters as units for non-parametric coordinates.

mtllib Floor_Bend_LP.mtl
g default
v 0.000000 0.000000 -0.000241
v 2.957433 0.000000 -3.000000
v 0.000000 0.000000 -3.000000
v 0.016009 0.000000 -0.325629
v 0.063834 0.000000 -0.647881
v 0.069698 0.000000 -0.671282
v 0.143023 0.000000 -0.963905
v 0.151153 0.000000 -0.986620
v 0.252826 0.000000 -1.270671
v 0.379245 0.000000 -1.540789
v 0.389409 0.000000 -1.562444
v 0.535215 0.000000 -1.811890
v 0.546948 0.000000 -1.831911
v 0.710949 0.000000 -2.058495
v 0.724127 0.000000 -2.076678
v 0.904621 0.000000 -2.278094
v 0.919158 0.000000 -2.294303
v 1.116044 0.000000 -2.470248
v 1.131876 0.000000 -2.484405
v 1.337208 0.000000 -2.627133
v 1.353734 0.000000 -2.638653
v 1.572832 0.000000 -2.754087
v 1.590389 0.000000 -2.763354
v 1.824177 0.000000 -2.853416
v 1.842346 0.000000 -2.860091
v 1.861757 0.000000 -2.864916
v 2.104489 0.000000 -2.925243
v 2.125233 0.000000 -2.928447
v 2.384639 0.000000 -2.968525
v 2.406785 0.000000 -2.970348
v 2.683718 0.000000 -2.993138
vt 0.000000 0.000080
vt 0.985811 1.000000
vt 0.000000 1.000000
vt 0.005336 0.108543
vt 0.021278 0.215960
vt 0.023233 0.223761
vt 0.047674 0.321302
vt 0.050384 0.328873
vt 0.084275 0.423557
vt 0.126415 0.513596
vt 0.129803 0.520815
vt 0.178405 0.603963
vt 0.182316 0.610637
vt 0.236983 0.686165
vt 0.241376 0.692226
vt 0.301540 0.759364
vt 0.306386 0.764768
vt 0.372015 0.823416
vt 0.377292 0.828135
vt 0.445736 0.875711
vt 0.451245 0.879551
vt 0.524277 0.918029
vt 0.530130 0.921118
vt 0.608059 0.951139
vt 0.614115 0.953364
vt 0.620586 0.954972
vt 0.701496 0.975081
vt 0.708411 0.976149
vt 0.794880 0.989508
vt 0.802262 0.990116
vt 0.894573 0.997713
vn 0.000000 1.000000 -0.000000
vn 0.000000 1.000000 -0.000000
vn 0.000000 1.000000 -0.000000
vn 0.000000 1.000000 -0.000000
vn 0.000000 1.000000 -0.000000
vn 0.000000 1.000000 -0.000000
vn 0.000000 1.000000 -0.000000
vn 0.000000 1.000000 -0.000000
vn 0.000000 1.000000 -0.000000
vn 0.000000 1.000000 -0.000000
vn 0.000000 1.000000 -0.000000
vn 0.000000 1.000000 -0.000000
vn 0.000000 1.000000 -0.000000
vn 0.000000 1.000000 -0.000000
vn 0.000000 1.000000 -0.000000
vn 0.000000 1.000000 -0.000000
vn 0.000000 1.000000 -0.000000
vn 0.000000 1.000000 -0.000000
vn 0.000000 1.000000 -0.000000
vn 0.000000 1.000000 -0.000000
vn 0.000000 1.000000 -0.000000
vn 0.000000 1.000000 -0.000000
vn 0.000000 1.000000 -0.000000
vn 0.000000 1.000000 -0.000000
vn 0.000000 1.000000 -0.000000
vn 0.000000 1.000000 -0.000000
vn 0.000000 1.000000 -0.000000
vn 0.000000 1.000000 -0.000000
vn 0.000000 1.000000 -0.000000
vn 0.000000 1.000000 -0.000000
vn 0.000000 1.000000 -0.000000
s off
g Floor_Bend_LP
usemtl initialShadingGroup
f 2/2/1 3/3/2 1/1/3 4/4/4 5/5/5 6/6/6 7/7/7 8/8/8 9/9/9 10/10/10 11/11/11 12/12/12 13/13/13 14/14/14 15/15/15 16/16/16 17/17/17 18/18/18 19/19/19 20/20/20 21/21/21 22/22/22 23/23/23 24/24/24 25/25/25 26/26/26 27/27/27 28/28/28 29/29/29 30/30/30 31/31/31
