# This file uses centimeters as units for non-parametric coordinates.

mtllib Inside_Bend_LP.mtl
g default
v 1.545350 0.000000 -1.506355
v 1.228990 0.000000 -1.897070
v 0.918864 0.000000 -2.294009
v 1.545255 1.000000 -1.506257
v 1.228896 1.000000 -1.896972
v 0.922836 0.600000 -2.297981
v 2.999909 1.000000 -1.999905
v 3.000777 1.000000 -2.500762
v 3.001093 0.600000 -3.001054
v 3.000091 0.000000 -2.000095
v 3.000982 0.000000 -2.500978
v 3.001138 0.000000 -3.001099
v 1.000034 0.000000 -0.000219
v 0.500000 0.000000 -0.000205
v 0.000000 0.000000 -0.000241
v 1.000034 1.000000 -0.000219
v 0.500000 1.000000 -0.000205
v 0.000000 0.600000 -0.000241
v 2.170444 1.000000 -1.881720
v 2.170598 0.000000 -1.881882
v 2.005479 0.000000 -2.370004
v 1.842349 0.000000 -2.860094
v 1.842311 0.600000 -2.860057
v 2.005308 1.000000 -2.369826
v 1.146312 1.000000 -0.857610
v 1.146340 0.000000 -0.857639
v 0.706439 0.000000 -1.071007
v 0.252827 0.000000 -1.270671
v 0.252821 0.600000 -1.270665
v 0.706423 1.000000 -1.070991
v 2.562874 0.000000 -1.970992
v 2.562700 1.000000 -1.970810
v 2.473287 1.000000 -2.469291
v 2.384599 0.600000 -2.968486
v 2.384642 0.000000 -2.968529
v 2.473482 0.000000 -2.469497
v 1.830349 1.000000 -1.728312
v 1.830476 0.000000 -1.728444
v 1.587398 0.000000 -2.178850
v 1.353246 0.000000 -2.638165
v 1.359839 0.600000 -2.644758
v 1.587264 1.000000 -2.178710
v 1.316552 0.000000 -1.214527
v 1.316492 1.000000 -1.214463
v 0.933921 1.000000 -1.525388
v 0.548541 0.600000 -1.833504
v 0.546820 0.000000 -1.831784
v 0.933974 0.000000 -1.525444
v 1.038918 1.000000 -0.447074
v 1.038918 0.000000 -0.447074
v 0.554252 0.000000 -0.550348
v 0.063834 0.000000 -0.647881
v 0.063834 0.600000 -0.647881
v 0.554252 1.000000 -0.550348
v 2.776528 0.000000 -1.992857
v 2.776348 1.000000 -1.992669
v 2.730108 1.000000 -2.492986
v 2.683676 0.600000 -2.993097
v 2.683721 0.000000 -2.993141
v 2.730311 0.000000 -2.493200
v 2.360372 1.000000 -1.933997
v 2.360536 0.000000 -1.934170
v 2.231713 0.000000 -2.428919
v 2.104492 0.000000 -2.925246
v 2.104451 0.600000 -2.925206
v 2.231529 1.000000 -2.428726
v 1.993769 0.000000 -1.813513
v 1.993629 1.000000 -1.813365
v 1.789740 1.000000 -2.286096
v 1.596943 0.600000 -2.769908
v 1.589865 0.000000 -2.762830
v 1.789893 0.000000 -2.286257
v 1.680843 1.000000 -1.626045
v 1.680953 0.000000 -1.626161
v 1.400394 0.000000 -2.049269
v 1.131494 0.000000 -2.484023
v 1.136654 0.600000 -2.489183
v 1.400277 1.000000 -2.049146
v 1.423810 0.000000 -1.369021
v 1.423733 1.000000 -1.368940
v 1.073315 1.000000 -1.722194
v 0.726518 0.600000 -2.079068
v 0.723936 0.000000 -2.076487
v 1.073388 0.000000 -1.722271
v 1.223863 1.000000 -1.043613
v 1.223907 0.000000 -1.043660
v 0.811370 0.000000 -1.307763
v 0.389355 0.000000 -1.562390
v 0.390082 0.600000 -1.563117
v 0.811337 1.000000 -1.307728
v 1.084448 0.000000 -0.658106
v 1.084433 1.000000 -0.658091
v 0.620246 1.000000 -0.817512
v 0.143021 0.600000 -0.963902
v 0.143023 0.000000 -0.963905
v 0.620246 0.000000 -0.817512
v 1.010450 1.000000 -0.226833
v 1.010450 0.000000 -0.226833
v 0.513606 0.000000 -0.276597
v 0.016009 0.000000 -0.325629
v 0.016009 0.600000 -0.325629
v 0.513606 1.000000 -0.276597
vt 0.978660 0.988119
vt 0.336106 0.989494
vt 0.681210 0.988756
vt 0.780360 0.988544
vt 0.435256 0.989282
vt 0.554236 0.989027
vt 0.113183 0.974444
vt 0.217625 0.974367
vt 0.552288 0.503056
vt 0.334158 0.503522
vt 0.235008 0.503735
vt 0.433308 0.503310
vt 0.008679 0.890969
vt 0.008585 0.765638
vt 0.778411 0.502572
vt 0.217469 0.765483
vt 0.113027 0.765561
vt 0.679261 0.502784
vt 0.976711 0.502147
vt 0.236956 0.989706
vt 0.009831 0.029132
vt 0.114273 0.029208
vt 0.114121 0.238092
vt 0.009679 0.238016
vt 0.218715 0.029284
vt 0.218623 0.154614
vt 0.780360 0.489534
vt 0.681210 0.489746
vt 0.679261 0.003775
vt 0.778411 0.003563
vt 0.554236 0.490018
vt 0.552288 0.004046
vt 0.235008 0.004725
vt 0.334158 0.004513
vt 0.336106 0.490485
vt 0.236956 0.490697
vt 0.433308 0.004301
vt 0.435256 0.490273
vt 0.976711 0.003138
vt 0.978660 0.489110
vt 0.779386 0.745558
vt 0.977686 0.745133
vt 0.235982 0.746720
vt 0.335132 0.746508
vt 0.434282 0.746296
vt 0.553262 0.746041
vt 0.680236 0.745770
vt 0.779386 0.246548
vt 0.977686 0.246124
vt 0.235982 0.247711
vt 0.335132 0.247499
vt 0.434282 0.247287
vt 0.553262 0.247032
vt 0.680236 0.246761
vt 0.977198 0.623640
vt 0.235495 0.625227
vt 0.778898 0.624065
vt 0.679749 0.624277
vt 0.552775 0.624549
vt 0.433795 0.624803
vt 0.334645 0.625015
vt 0.779873 0.867051
vt 0.978173 0.866626
vt 0.236469 0.868213
vt 0.335619 0.868001
vt 0.434769 0.867789
vt 0.553749 0.867534
vt 0.680723 0.867263
vt 0.977198 0.124631
vt 0.235495 0.126218
vt 0.778898 0.125055
vt 0.679749 0.125268
vt 0.552775 0.125539
vt 0.433795 0.125794
vt 0.334645 0.126006
vt 0.779873 0.368041
vt 0.978173 0.367617
vt 0.236469 0.369204
vt 0.335619 0.368992
vt 0.434769 0.368780
vt 0.553749 0.368525
vt 0.680723 0.368253
vt 0.976955 0.562894
vt 0.235251 0.564481
vt 0.778655 0.563318
vt 0.679505 0.563530
vt 0.552531 0.563802
vt 0.433551 0.564057
vt 0.334401 0.564269
vt 0.779142 0.684811
vt 0.977442 0.684387
vt 0.235738 0.685974
vt 0.334888 0.685762
vt 0.434038 0.685550
vt 0.553018 0.685295
vt 0.679992 0.685023
vt 0.977929 0.805880
vt 0.236225 0.807467
vt 0.779629 0.806304
vt 0.680479 0.806516
vt 0.553505 0.806788
vt 0.434525 0.807043
vt 0.335375 0.807255
vt 0.780116 0.927797
vt 0.978416 0.927373
vt 0.236713 0.928960
vt 0.335862 0.928748
vt 0.435012 0.928536
vt 0.553993 0.928281
vt 0.680966 0.928009
vt 0.976955 0.063885
vt 0.235251 0.065472
vt 0.778655 0.064309
vt 0.679505 0.064521
vt 0.552531 0.064793
vt 0.433551 0.065047
vt 0.334401 0.065260
vt 0.779142 0.185802
vt 0.977442 0.185378
vt 0.235738 0.186965
vt 0.334888 0.186753
vt 0.434038 0.186540
vt 0.553018 0.186286
vt 0.679992 0.186014
vt 0.977929 0.306871
vt 0.236225 0.308458
vt 0.779629 0.307295
vt 0.680479 0.307507
vt 0.553505 0.307779
vt 0.434525 0.308033
vt 0.335375 0.308246
vt 0.780116 0.428788
vt 0.978416 0.428364
vt 0.236713 0.429951
vt 0.335862 0.429738
vt 0.435012 0.429526
vt 0.553993 0.429272
vt 0.680966 0.429000
vn 0.000000 1.000000 0.000000
vn 0.000000 1.000000 0.000000
vn -0.255559 0.911964 -0.320953
vn -0.262879 0.918657 -0.294897
vn -0.381162 0.786225 -0.486379
vn -0.413943 0.782957 -0.464360
vn 0.999998 0.000193 0.001756
vn 0.999998 0.000193 0.001756
vn 0.999999 0.000177 0.001158
vn 0.999999 0.000182 0.001335
vn 1.000000 0.000157 0.000410
vn 1.000000 0.000157 0.000410
vn 0.000000 -1.000000 0.000000
vn 0.000000 -1.000000 0.000000
vn 0.000000 -1.000000 0.000000
vn 0.000000 -1.000000 0.000000
vn 0.000000 -1.000000 0.000000
vn 0.000000 -1.000000 0.000000
vn -0.666462 -0.000602 -0.745539
vn -0.666462 -0.000602 -0.745539
vn -0.620937 -0.001508 -0.783859
vn -0.621667 -0.001494 -0.783280
vn 0.614497 -0.000024 0.788919
vn 0.662100 -0.000013 0.749416
vn 0.662100 -0.000013 0.749416
vn 0.614487 -0.000024 0.788927
vn 0.000029 0.000000 1.000000
vn 0.000029 0.000000 1.000000
vn -0.000003 0.000000 1.000000
vn -0.000016 0.000000 1.000000
vn -0.000073 0.000000 1.000000
vn -0.000073 0.000000 1.000000
vn 0.000000 1.000000 0.000000
vn 0.000000 1.000000 0.000000
vn -0.407163 0.912473 -0.040142
vn -0.407986 0.912767 -0.020078
vn -0.621674 0.780875 -0.061289
vn -0.624396 0.780504 -0.030728
vn 0.000000 -1.000000 0.000000
vn 0.000000 -1.000000 0.000000
vn 0.000000 -1.000000 0.000000
vn 0.000000 -1.000000 0.000000
vn 0.000000 -1.000000 0.000000
vn 0.000000 -1.000000 0.000000
vn -0.998792 0.000000 -0.049140
vn -0.998792 0.000000 -0.049140
vn -0.995178 0.000000 -0.098089
vn -0.995178 0.000000 -0.098089
vn 0.996235 0.000000 0.086691
vn 0.998945 0.000000 0.045915
vn 0.998945 0.000000 0.045915
vn 0.996235 0.000000 0.086691
vn 0.032355 -0.000184 0.999476
vn 0.032355 -0.000184 0.999476
vn 0.066413 -0.000175 0.997792
vn 0.066404 -0.000175 0.997793
vn 0.000000 -1.000000 0.000000
vn 0.000000 -1.000000 0.000000
vn 0.000000 -1.000000 0.000000
vn 0.000000 -1.000000 0.000000
vn 0.000000 -1.000000 0.000000
vn 0.000000 -1.000000 0.000000
vn -0.052757 0.000070 -0.998607
vn -0.025062 0.000073 -0.999686
vn -0.025062 0.000073 -0.999686
vn -0.052755 0.000070 -0.998608
vn -0.022281 0.915618 -0.401431
vn -0.010785 0.915081 -0.403127
vn -0.016694 0.781257 -0.623986
vn -0.035182 0.782293 -0.621916
vn 0.000000 1.000000 0.000000
vn 0.000000 1.000000 0.000000
vn 0.748860 0.000005 0.662728
vn 0.748860 0.000005 0.662728
vn 0.786975 0.000010 0.616985
vn 0.786970 0.000010 0.616991
vn 0.000000 -1.000000 0.000000
vn 0.000000 -1.000000 0.000000
vn 0.000000 -1.000000 0.000000
vn 0.000000 -1.000000 0.000000
vn 0.000000 -1.000000 0.000000
vn 0.000000 -1.000000 0.000000
vn -0.778699 0.000614 -0.627397
vn -0.744604 0.000421 -0.667506
vn -0.744604 0.000421 -0.667506
vn -0.778950 0.000616 -0.627086
vn -0.330174 0.906680 -0.262522
vn -0.327872 0.898116 -0.293067
vn -0.468084 0.778359 -0.418396
vn -0.489731 0.777426 -0.394681
vn 0.000000 1.000000 0.000000
vn 0.000000 1.000000 0.000000
vn 0.221506 -0.000132 0.975159
vn 0.312485 -0.000105 0.949923
vn 0.312474 -0.000105 0.949926
vn 0.221495 -0.000132 0.975162
vn 0.000000 1.000000 0.000000
vn 0.000000 1.000000 0.000000
vn -0.079595 0.917994 -0.388524
vn -0.118404 0.918377 -0.377578
vn -0.124844 0.787897 -0.603020
vn -0.183630 0.790905 -0.583737
vn -0.296827 -0.001678 -0.954930
vn -0.196072 0.000052 -0.980589
vn -0.196068 0.000052 -0.980590
vn -0.296821 -0.001678 -0.954932
vn 0.000000 -1.000000 0.000000
vn 0.000000 -1.000000 0.000000
vn 0.000000 -1.000000 0.000000
vn 0.000000 -1.000000 0.000000
vn 0.000000 -1.000000 0.000000
vn 0.000000 -1.000000 0.000000
vn 0.411204 -0.000077 0.911543
vn 0.411191 -0.000077 0.911549
vn 0.000000 -1.000000 0.000000
vn 0.000000 -1.000000 0.000000
vn 0.000000 -1.000000 0.000000
vn -0.409811 -0.004098 -0.912162
vn -0.410944 -0.004111 -0.911651
vn -0.163867 0.917818 -0.361603
vn -0.250299 0.792223 -0.556537
vn 0.000000 1.000000 0.000000
vn 0.902608 0.000019 0.430463
vn 0.940381 0.000016 0.340122
vn 0.940380 0.000016 0.340125
vn 0.902607 0.000019 0.430467
vn 0.000000 1.000000 0.000000
vn 0.000000 1.000000 0.000000
vn -0.376965 0.905889 -0.193036
vn -0.390007 0.907428 -0.156425
vn -0.560704 0.775791 -0.289413
vn -0.583019 0.777774 -0.234854
vn -0.924618 0.000143 -0.380896
vn -0.885493 0.000508 -0.464653
vn -0.885537 0.000507 -0.464569
vn -0.924617 0.000143 -0.380897
vn 0.000000 -1.000000 0.000000
vn 0.000000 -1.000000 0.000000
vn 0.000000 -1.000000 0.000000
vn 0.000000 -1.000000 0.000000
vn 0.000000 -1.000000 0.000000
vn 0.000000 -1.000000 0.000000
vn 0.967440 0.000009 0.253100
vn 0.967440 0.000009 0.253101
vn 0.000000 -1.000000 0.000000
vn 0.000000 -1.000000 0.000000
vn 0.000000 -1.000000 0.000000
vn -0.956911 -0.000002 -0.290382
vn -0.956911 -0.000002 -0.290382
vn -0.397950 0.909707 -0.118610
vn -0.599894 0.779791 -0.179033
vn 0.000000 1.000000 0.000000
vn 0.139684 -0.000156 0.990196
vn 0.139674 -0.000156 0.990198
vn 0.000000 1.000000 0.000000
vn -0.048279 0.916770 -0.396486
vn -0.076089 0.784769 -0.615100
vn -0.116418 0.000062 -0.993200
vn -0.116414 0.000062 -0.993201
vn 0.000000 -1.000000 0.000000
vn 0.000000 -1.000000 0.000000
vn 0.000000 -1.000000 0.000000
vn 0.513806 -0.000049 0.857907
vn 0.513794 -0.000049 0.857913
vn 0.000000 1.000000 0.000000
vn -0.210303 0.915459 -0.343084
vn -0.317148 0.790441 -0.524042
vn -0.519675 -0.003615 -0.854356
vn -0.520683 -0.003592 -0.853743
vn 0.000000 -1.000000 0.000000
vn 0.000000 -1.000000 0.000000
vn 0.000000 -1.000000 0.000000
vn 0.852039 0.000018 0.523478
vn 0.852036 0.000018 0.523483
vn 0.000000 1.000000 0.000000
vn -0.357160 0.905692 -0.228382
vn -0.530176 0.775496 -0.342811
vn -0.837824 0.000766 -0.545940
vn -0.837958 0.000766 -0.545734
vn 0.000000 -1.000000 0.000000
vn 0.000000 -1.000000 0.000000
vn 0.000000 -1.000000 0.000000
vn 0.985600 0.000003 0.169096
vn 0.985600 0.000003 0.169096
vn 0.000000 1.000000 0.000000
vn -0.403885 0.911304 -0.080013
vn -0.612956 0.780727 -0.121453
vn -0.980770 -0.000000 -0.195168
vn -0.980770 -0.000000 -0.195168
vn 0.000000 -1.000000 0.000000
vn 0.000000 -1.000000 0.000000
vn 0.000000 -1.000000 0.000000
s 1
g Inside_Bend_LP
usemtl initialShadingGroup
f 4/4/1 73/104/2 78/110/3 5/3/4
f 5/3/4 78/110/3 77/109/5 6/6/6
s 2
f 7/8/7 10/16/8 11/17/9 8/7/10
f 8/7/10 11/17/9 12/14/11 9/13/12
s 3
f 74/106/13 1/20/14 2/2/15 75/107/16
f 75/107/16 2/2/15 3/5/17 76/108/18
s 4
f 3/5/19 6/6/20 77/109/21 76/108/22
s 5
f 73/104/23 4/4/24 1/1/25 74/105/26
s 6
f 13/21/27 16/24/28 17/23/29 14/22/30
f 14/22/30 17/23/29 18/26/31 15/25/32
s 7
f 16/27/33 97/132/34 102/138/35 17/28/36
f 17/28/36 102/138/35 101/137/37 18/31/38
s 8
f 98/134/39 13/36/40 14/35/41 99/135/42
f 99/135/42 14/35/41 15/38/43 100/136/44
s 9
f 15/38/45 18/31/46 101/137/47 100/136/48
s 10
f 97/132/49 16/27/50 13/40/51 98/133/52
s 5
f 10/19/53 7/15/54 56/85/55 55/83/56
s 3
f 10/11/57 55/84/58 60/89/59 11/10/60
f 11/10/60 60/89/59 59/88/61 12/12/62
s 4
f 58/87/63 9/9/64 12/12/65 59/88/66
s 1
f 57/86/67 8/18/68 9/9/69 58/87/70
f 56/85/71 7/15/72 8/18/68 57/86/67
s 10
f 1/39/73 4/30/74 80/113/75 79/111/76
s 8
f 1/33/77 79/112/78 84/117/79 2/34/80
f 2/34/80 84/117/79 83/116/81 3/37/82
s 9
f 82/115/83 6/32/84 3/37/85 83/116/86
s 7
f 81/114/87 5/29/88 6/32/89 82/115/90
f 80/113/91 4/30/92 5/29/88 81/114/87
s 5
f 61/90/93 19/41/94 20/42/95 62/91/96
s 1
f 19/41/97 61/90/98 66/96/99 24/47/100
f 24/47/100 66/96/99 65/95/101 23/46/102
s 4
f 23/46/103 65/95/104 64/94/105 22/45/106
s 3
f 63/93/107 21/44/108 22/45/109 64/94/110
f 62/92/111 20/43/112 21/44/108 63/93/107
s 5
f 19/41/94 68/99/113 67/97/114 20/42/95
s 3
f 20/43/112 67/98/115 72/103/116 21/44/108
f 21/44/108 72/103/116 71/102/117 22/45/109
s 4
f 70/101/118 23/46/103 22/45/106 71/102/119
s 1
f 69/100/120 24/47/100 23/46/102 70/101/121
f 68/99/122 19/41/97 24/47/100 69/100/120
s 10
f 85/118/123 25/48/124 26/49/125 86/119/126
s 7
f 25/48/127 85/118/128 90/124/129 30/54/130
f 30/54/130 90/124/129 89/123/131 29/53/132
s 9
f 29/53/133 89/123/134 88/122/135 28/52/136
s 8
f 87/121/137 27/51/138 28/52/139 88/122/140
f 86/120/141 26/50/142 27/51/138 87/121/137
s 10
f 25/48/124 92/127/143 91/125/144 26/49/125
s 8
f 26/50/142 91/126/145 96/131/146 27/51/138
f 27/51/138 96/131/146 95/130/147 28/52/139
s 9
f 94/129/148 29/53/133 28/52/136 95/130/149
s 7
f 93/128/150 30/54/130 29/53/132 94/129/151
f 92/127/152 25/48/127 30/54/130 93/128/150
s 5
f 56/85/55 32/57/153 31/55/154 55/83/56
s 1
f 32/57/155 56/85/71 57/86/67 33/58/156
f 33/58/156 57/86/67 58/87/70 34/59/157
s 4
f 34/59/158 58/87/63 59/88/66 35/60/159
s 3
f 60/89/59 36/61/160 35/60/161 59/88/61
f 55/84/58 31/56/162 36/61/160 60/89/59
s 5
f 32/57/153 61/90/93 62/91/96 31/55/154
s 3
f 31/56/162 62/92/111 63/93/107 36/61/160
f 36/61/160 63/93/107 64/94/110 35/60/161
s 4
f 65/95/104 34/59/158 35/60/159 64/94/105
s 1
f 66/96/99 33/58/156 34/59/157 65/95/101
f 61/90/98 32/57/155 33/58/156 66/96/99
s 5
f 68/99/113 37/62/163 38/63/164 67/97/114
s 1
f 37/62/165 68/99/122 69/100/120 42/68/166
f 42/68/166 69/100/120 70/101/121 41/67/167
s 4
f 41/67/168 70/101/118 71/102/119 40/66/169
s 3
f 72/103/116 39/65/170 40/66/171 71/102/117
f 67/98/115 38/64/172 39/65/170 72/103/116
s 5
f 37/62/163 73/104/23 74/105/26 38/63/164
s 3
f 38/64/172 74/106/13 75/107/16 39/65/170
f 39/65/170 75/107/16 76/108/18 40/66/171
s 4
f 77/109/21 41/67/168 40/66/169 76/108/22
s 1
f 78/110/3 42/68/166 41/67/167 77/109/5
f 73/104/2 37/62/165 42/68/166 78/110/3
s 10
f 80/113/75 44/71/173 43/69/174 79/111/76
s 7
f 44/71/175 80/113/91 81/114/87 45/72/176
f 45/72/176 81/114/87 82/115/90 46/73/177
s 9
f 46/73/178 82/115/83 83/116/86 47/74/179
s 8
f 84/117/79 48/75/180 47/74/181 83/116/81
f 79/112/78 43/70/182 48/75/180 84/117/79
s 10
f 44/71/173 85/118/123 86/119/126 43/69/174
s 8
f 43/70/182 86/120/141 87/121/137 48/75/180
f 48/75/180 87/121/137 88/122/140 47/74/181
s 9
f 89/123/134 46/73/178 47/74/179 88/122/135
s 7
f 90/124/129 45/72/176 46/73/177 89/123/131
f 85/118/128 44/71/175 45/72/176 90/124/129
s 10
f 92/127/143 49/76/183 50/77/184 91/125/144
s 7
f 49/76/185 92/127/152 93/128/150 54/82/186
f 54/82/186 93/128/150 94/129/151 53/81/187
s 9
f 53/81/188 94/129/148 95/130/149 52/80/189
s 8
f 96/131/146 51/79/190 52/80/191 95/130/147
f 91/126/145 50/78/192 51/79/190 96/131/146
s 10
f 49/76/183 97/132/49 98/133/52 50/77/184
s 8
f 50/78/192 98/134/39 99/135/42 51/79/190
f 51/79/190 99/135/42 100/136/44 52/80/191
s 9
f 101/137/47 53/81/188 52/80/189 100/136/48
s 7
f 102/138/35 54/82/186 53/81/187 101/137/37
f 97/132/34 49/76/185 54/82/186 102/138/35
