# This file uses centimeters as units for non-parametric coordinates.

mtllib Outside_Corner_LP.mtl
g default
v -1.000000 0.000000 -4.000000
v -0.499861 0.000000 -3.500139
v 0.000139 0.000000 -3.000139
v -1.000000 1.000000 -4.000000
v -0.499861 0.999999 -3.500139
v 0.000139 0.600000 -3.000139
v 3.000278 1.000000 -4.000000
v 3.000278 1.000000 -3.500000
v 3.000278 0.600000 -3.000000
v 3.000278 0.000000 -4.000000
v 3.000278 0.000000 -3.500000
v 3.000278 0.000000 -3.000000
v -1.000000 0.000000 -0.000277
v -0.500000 0.000000 -0.000277
v 0.000000 0.000000 -0.000277
v -1.000000 1.000000 -0.000277
v -0.500000 1.000000 -0.000277
v 0.000000 0.600000 -0.000277
vt 0.846757 0.985121
vt 0.787898 0.925178
vt 0.787877 0.505674
vt 0.684921 0.865251
vt 0.113157 0.942481
vt 0.183374 0.942429
vt 0.684917 0.505674
vt 0.493480 0.505674
vt 0.552360 0.505674
vt 0.552339 0.925178
vt 0.042899 0.886361
vt 0.042837 0.802101
vt 0.493480 0.985121
vt 0.183269 0.801997
vt 0.113053 0.802049
vt 0.611239 0.505674
vt 0.949123 0.005996
vt 0.836239 0.493101
vt 0.009831 0.029132
vt 0.114273 0.029208
vt 0.114121 0.238092
vt 0.009679 0.238016
vt 0.218715 0.029284
vt 0.218623 0.154614
vt 0.779826 0.493101
vt 0.779806 0.066861
vt 0.836268 0.005984
vt 0.681164 0.493106
vt 0.681119 0.127760
vt 0.497663 0.005996
vt 0.554096 0.066873
vt 0.554076 0.493113
vt 0.497634 0.493113
vt 0.610516 0.127767
vt 0.610528 0.493113
vt 0.949095 0.493113
vt 0.611229 0.865251
vt 0.964516 0.985121
vt 0.846757 0.505674
vt 0.964516 0.505674
vn -0.000000 1.000000 0.000001
vn -0.000009 0.980531 0.196363
vn -0.000015 0.937413 0.348219
vn -0.000000 1.000000 0.000001
vn -0.000027 0.780863 0.624703
vn -0.000027 0.780863 0.624703
vn 1.000000 0.000000 0.000000
vn 1.000000 0.000000 0.000000
vn 1.000000 0.000000 0.000000
vn 1.000000 0.000000 0.000000
vn 1.000000 0.000000 0.000000
vn 1.000000 0.000000 0.000000
vn 0.000000 -1.000000 0.000000
vn 0.000000 -1.000000 0.000000
vn 0.000000 -1.000000 0.000000
vn 0.000000 -1.000000 0.000000
vn 0.000000 -1.000000 0.000000
vn 0.000000 -1.000000 0.000000
vn -0.000046 0.000000 1.000000
vn -0.000046 0.000000 1.000000
vn -0.000046 0.000000 1.000000
vn -0.000046 0.000000 1.000000
vn 0.000000 0.000000 -1.000000
vn 0.000000 0.000000 -1.000000
vn 0.000000 0.000000 -1.000000
vn 0.000000 0.000000 -1.000000
vn 0.000000 0.000000 1.000000
vn 0.000000 0.000000 1.000000
vn 0.000000 0.000000 1.000000
vn 0.000000 0.000000 1.000000
vn 0.000000 0.000000 1.000000
vn 0.000000 0.000000 1.000000
vn 0.000001 1.000000 -0.000000
vn 0.348154 0.937437 0.000015
vn 0.196370 0.980530 0.000008
vn 0.000001 1.000000 -0.000000
vn 0.624687 0.780876 0.000027
vn 0.624686 0.780876 0.000027
vn 0.000000 -1.000000 0.000000
vn 0.000000 -1.000000 0.000000
vn 0.000000 -1.000000 0.000000
vn 0.000000 -1.000000 0.000000
vn 0.000000 -1.000000 0.000000
vn 0.000000 -1.000000 0.000000
vn 1.000000 0.000000 0.000046
vn 1.000000 0.000000 0.000046
vn 1.000000 0.000000 0.000046
vn 1.000000 0.000000 0.000046
vn -1.000000 0.000000 0.000000
vn -1.000000 0.000000 0.000000
vn -1.000000 0.000000 0.000000
vn -1.000000 0.000000 0.000000
s 1
g Outside_Corner_LP
usemtl initialShadingGroup
f 4/1/1 5/2/2 8/3/3 7/39/4
f 5/2/2 6/4/5 9/7/6 8/3/3
s 2
f 7/6/7 8/5/8 11/15/9 10/14/10
f 8/5/8 9/11/11 12/12/12 11/15/9
s 3
f 10/8/13 11/9/14 2/10/15 1/13/16
f 11/9/14 12/16/17 3/37/18 2/10/15
s off
f 3/37/19 12/16/20 9/7/21 6/4/22
f 10/40/23 1/38/24 4/1/25 7/39/26
s 4
f 13/19/27 14/20/28 17/21/29 16/22/30
f 14/20/28 15/23/31 18/24/32 17/21/29
s 5
f 16/18/33 17/25/34 5/26/35 4/27/36
f 17/25/34 18/28/37 6/29/38 5/26/35
s 6
f 1/30/39 2/31/40 14/32/41 13/33/42
f 2/31/40 3/34/43 15/35/44 14/32/41
s off
f 15/35/45 3/34/46 6/29/47 18/28/48
f 1/17/49 13/36/50 16/18/51 4/27/52
