# This file uses centimeters as units for non-parametric coordinates.

mtllib Wall_LP.mtl
g default
v -1.000000 0.000000 -0.000277
v -0.500000 0.000000 -0.000277
v 0.000000 0.000000 -0.000277
v -1.000000 1.000000 -0.000277
v -0.500000 1.000000 -0.000277
v 0.000000 0.600000 -0.000277
v -1.000000 1.000000 -3.000278
v -0.500000 1.000000 -3.000278
v 0.000000 0.600000 -3.000278
v -1.000000 0.000000 -3.000278
v -0.500000 0.000000 -3.000278
v 0.000000 0.000000 -3.000278
vt 0.978660 0.489110
vt 0.336106 0.490485
vt 0.681210 0.489746
vt 0.780360 0.489534
vt 0.435256 0.490273
vt 0.554236 0.490018
vt 0.113183 0.475435
vt 0.217625 0.475357
vt 0.552288 0.004046
vt 0.334158 0.004513
vt 0.235008 0.004725
vt 0.433308 0.004301
vt 0.008679 0.391959
vt 0.008585 0.266629
vt 0.778411 0.003563
vt 0.217469 0.266474
vt 0.113027 0.266551
vt 0.679261 0.003775
vt 0.218715 0.029284
vt 0.218623 0.154614
vt 0.009831 0.029132
vt 0.009679 0.238016
vt 0.114121 0.238092
vt 0.114273 0.029208
vt 0.976711 0.003138
vt 0.236956 0.490697
vn 0.000000 0.000000 1.000000
vn 0.000000 0.000000 1.000000
vn 0.000000 0.000000 1.000000
vn 0.000000 0.000000 1.000000
vn 0.000000 0.000000 1.000000
vn 0.000000 0.000000 1.000000
vn 0.000000 1.000000 0.000000
vn 0.371391 0.928477 0.000000
vn 0.371391 0.928477 0.000000
vn 0.000000 1.000000 0.000000
vn 0.624695 0.780869 0.000000
vn 0.624695 0.780869 0.000000
vn 0.000000 0.000000 -1.000000
vn 0.000000 0.000000 -1.000000
vn 0.000000 0.000000 -1.000000
vn 0.000000 0.000000 -1.000000
vn 0.000000 0.000000 -1.000000
vn 0.000000 0.000000 -1.000000
vn 0.000000 -1.000000 0.000000
vn 0.000000 -1.000000 0.000000
vn 0.000000 -1.000000 0.000000
vn 0.000000 -1.000000 0.000000
vn 0.000000 -1.000000 0.000000
vn 0.000000 -1.000000 0.000000
vn 1.000000 0.000000 0.000000
vn 1.000000 0.000000 0.000000
vn 1.000000 0.000000 0.000000
vn 1.000000 0.000000 0.000000
vn -1.000000 0.000000 0.000000
vn -1.000000 0.000000 0.000000
vn -1.000000 0.000000 0.000000
vn -1.000000 0.000000 0.000000
s 1
g Wall_LP
usemtl initialShadingGroup
f 1/21/1 2/24/2 5/23/3 4/22/4
f 2/24/2 3/19/5 6/20/6 5/23/3
s 2
f 4/4/7 5/3/8 8/18/9 7/15/10
f 5/3/8 6/6/11 9/9/12 8/18/9
s 3
f 7/8/13 8/7/14 11/17/15 10/16/16
f 8/7/14 9/13/17 12/14/18 11/17/15
s 4
f 10/11/19 11/10/20 2/2/21 1/26/22
f 11/10/20 12/12/23 3/5/24 2/2/21
s off
f 3/5/25 12/12/26 9/9/27 6/6/28
f 10/25/29 1/1/30 4/4/31 7/15/32
