# This file uses centimeters as units for non-parametric coordinates.

mtllib Outercorner_LP.mtl
g default
v -1.000000 0.000000 0.000000
v -0.500000 0.000000 0.000000
v 0.000000 0.000000 0.000000
v -1.000000 1.000000 0.000000
v -0.500000 1.000000 0.000000
v 0.000000 0.700000 0.000000
v -1.000000 1.000000 -4.000000
v -0.500000 1.000000 -3.500000
v 0.000000 0.700000 -3.000000
v -1.000000 0.000000 -4.000000
v -0.500000 0.000000 -3.500000
v 0.000000 0.000000 -3.000000
v -1.000000 0.000000 -4.000000
v -0.500000 0.000000 -3.500000
v 0.000000 0.000000 -3.000000
v -1.000000 1.000000 -4.000000
v -0.500000 1.000000 -3.500000
v 0.000001 0.700000 -3.000000
v 2.999999 1.000000 -4.000000
v 2.999999 1.000000 -3.500000
v 2.999999 0.700000 -3.000000
v 2.999999 0.000000 -4.000000
v 2.999999 0.000000 -3.500000
v 2.999999 0.000000 -3.000000
vt 0.296591 0.013613
vt 0.216974 0.012872
vt 0.535440 0.015838
vt 0.455823 0.015097
vt 0.137358 0.012130
vt 0.025895 0.011092
vt 0.021445 0.488790
vt 0.212524 0.490570
vt 0.292141 0.491312
vt 0.132908 0.489829
vt 0.865512 0.281686
vt 0.860882 0.432559
vt 0.649979 0.275073
vt 0.643366 0.490605
vt 0.751132 0.493912
vt 0.757746 0.278380
vt 0.628288 0.016703
vt 0.623838 0.494402
vt 0.451374 0.492795
vt 0.530990 0.493537
vt 0.615836 0.980835
vt 0.535863 0.981966
vt 0.529075 0.502127
vt 0.609048 0.500996
vt 0.442599 0.983285
vt 0.435811 0.503447
vt 0.958246 0.747206
vt 0.842184 0.751795
vt 0.833007 0.519672
vt 0.949068 0.515083
vt 0.723369 0.686746
vt 0.716945 0.524260
vt 0.163902 0.507293
vt 0.243876 0.506162
vt 0.250664 0.986001
vt 0.170691 0.987132
vt 0.323849 0.505031
vt 0.330637 0.984869
vt 0.010744 0.989395
vt 0.003956 0.509556
vn 0.000000 0.000000 1.000000
vn 0.000000 0.000000 1.000000
vn 0.000000 0.000000 1.000000
vn 0.000000 0.000000 1.000000
vn 0.000000 0.000000 1.000000
vn 0.000000 0.000000 1.000000
vn 0.000000 1.000000 0.000000
vn 0.268354 0.963320 0.000000
vn 0.142954 0.989729 0.000000
vn 0.000000 1.000000 0.000000
vn 0.514496 0.857493 0.000000
vn 0.514496 0.857493 0.000000
vn 0.000000 -1.000000 0.000000
vn 0.000000 -1.000000 0.000000
vn 0.000000 -1.000000 0.000000
vn 0.000000 -1.000000 0.000000
vn 0.000000 -1.000000 0.000000
vn 0.000000 -1.000000 0.000000
vn 1.000000 0.000000 0.000000
vn 1.000000 0.000000 0.000000
vn 1.000000 0.000000 0.000000
vn 1.000000 0.000000 0.000000
vn -1.000000 0.000000 0.000000
vn -1.000000 0.000000 0.000000
vn -1.000000 0.000000 0.000000
vn -1.000000 0.000000 0.000000
vn 0.000000 1.000000 0.000000
vn 0.000000 0.989729 0.142954
vn 0.000000 0.963320 0.268353
vn 0.000000 1.000000 0.000000
vn 0.000000 0.857493 0.514496
vn 0.000000 0.857493 0.514496
vn 1.000000 0.000000 0.000000
vn 1.000000 0.000000 0.000000
vn 1.000000 0.000000 0.000000
vn 1.000000 0.000000 0.000000
vn 1.000000 0.000000 0.000000
vn 1.000000 0.000000 0.000000
vn 0.000000 -1.000000 0.000000
vn 0.000000 -1.000000 0.000000
vn 0.000000 -1.000000 0.000000
vn 0.000000 -1.000000 0.000000
vn 0.000000 -1.000000 0.000000
vn 0.000000 -1.000000 0.000000
vn 0.000000 0.000000 1.000000
vn 0.000000 0.000000 1.000000
vn 0.000000 0.000000 1.000000
vn 0.000000 0.000000 1.000000
vn 0.000000 0.000000 -1.000000
vn 0.000000 0.000000 -1.000000
vn 0.000000 0.000000 -1.000000
vn 0.000000 0.000000 -1.000000
s 1
g outercorner_LP
usemtl initialShadingGroup
f 1/13/1 2/16/2 5/15/3 4/14/4
f 2/16/2 3/11/5 6/12/6 5/15/3
s 2
f 4/4/7 5/3/8 8/20/9 7/19/10
f 5/3/8 6/17/11 9/18/12 8/20/9
s off
f 2/2/13 1/1/14 10/9/15 11/8/16 12/10/17 3/5/18
f 3/5/19 12/10/20 9/7/21 6/6/22
f 10/9/23 1/1/24 4/4/25 7/19/26
s 3
f 16/21/27 17/22/28 20/23/29 19/24/30
f 17/22/28 18/25/31 21/26/32 20/23/29
s 4
f 19/27/33 20/28/34 23/29/35 22/30/36
f 20/28/34 21/31/37 24/32/38 23/29/35
s off
f 14/35/39 13/36/40 22/33/41 23/34/42 24/37/43 15/38/44
f 15/38/45 24/37/46 21/26/47 18/25/48
f 22/33/49 13/36/50 16/39/51 19/40/52
