# This file uses centimeters as units for non-parametric coordinates.

mtllib Outsidebend_LP.mtl
g default
v -1.000000 0.000000 0.000000
v -0.500000 0.000000 0.000000
v -0.000000 0.000000 0.000000
v -1.000000 1.000000 0.000000
v -0.500000 1.000000 0.000000
v -0.000000 0.700000 0.000000
v 0.170182 1.000000 -2.825070
v 0.523735 1.000000 -2.471517
v 0.877290 0.700000 -2.117964
v 0.170182 0.000000 -2.825070
v 0.523735 0.000000 -2.471517
v 0.877289 0.000000 -2.117964
v 0.170182 0.000000 -2.825070
v 0.523735 0.000000 -2.471517
v 0.877289 0.000000 -2.117964
v 0.170182 1.000000 -2.825070
v 0.523735 1.000000 -2.471517
v 0.877290 0.700000 -2.117964
v 3.000000 1.000000 -4.000000
v 3.000000 1.000000 -3.495253
v 3.000000 0.700000 -3.000000
v 3.000000 0.000000 -4.000000
v 3.000000 0.000000 -3.495253
v 3.000000 0.000000 -3.000000
v 1.466336 1.000000 -3.691132
v 1.466336 0.000000 -3.691132
v 1.657677 0.000000 -3.229192
v 1.849019 0.000000 -2.767253
v 1.849020 0.700000 -2.767253
v 1.657677 1.000000 -3.229192
v -0.695880 1.000000 -1.528917
v -0.695880 0.000000 -1.528917
v -0.233940 0.000000 -1.337575
v 0.228000 0.000000 -1.146234
v 0.228000 0.700000 -1.146234
v -0.233939 1.000000 -1.337575
v -0.923232 1.000000 -0.779435
v -0.923232 0.000000 -0.779435
v -0.432840 0.000000 -0.681890
v 0.057553 0.000000 -0.584345
v 0.057552 0.700000 -0.584345
v -0.432839 1.000000 -0.681890
v -0.326679 0.000000 -2.219644
v -0.326678 1.000000 -2.219644
v 0.089056 1.000000 -1.941858
v 0.504791 0.700000 -1.664073
v 0.504791 0.000000 -1.664073
v 0.089055 0.000000 -1.941858
v 0.775608 1.000000 -3.321931
v 0.775609 0.000000 -3.321931
v 1.053394 0.000000 -2.906197
v 1.331179 0.000000 -2.490462
v 1.331180 0.700000 -2.490462
v 1.053394 1.000000 -2.906197
v 2.215818 0.000000 -3.918485
v 2.215818 1.000000 -3.918485
v 2.313363 1.000000 -3.428092
v 2.410907 0.700000 -2.937700
v 2.410908 0.000000 -2.937700
v 2.313362 0.000000 -3.428092
v 2.603650 0.000000 -3.976015
v 2.603650 1.000000 -3.976015
v 2.652658 1.000000 -3.478422
v 2.701666 0.700000 -2.980830
v 2.701667 0.000000 -2.980830
v 2.652658 0.000000 -3.478422
v 1.835492 1.000000 -3.823219
v 1.835492 0.000000 -3.823219
v 1.980634 0.000000 -3.344748
v 2.125776 0.000000 -2.866278
v 2.125777 0.700000 -2.866278
v 1.980635 1.000000 -3.344748
v 1.111903 0.000000 -3.523499
v 1.111904 1.000000 -3.523499
v 1.347602 1.000000 -3.082538
v 1.583300 0.700000 -2.641577
v 1.583301 0.000000 -2.641577
v 1.347601 0.000000 -3.082538
v 0.460690 1.000000 -3.088372
v 0.460691 0.000000 -3.088372
v 0.777887 0.000000 -2.701867
v 1.095084 0.000000 -2.315362
v 1.095085 0.700000 -2.315362
v 0.777887 1.000000 -2.701867
v -0.093119 0.000000 -2.534562
v -0.093120 1.000000 -2.534561
v 0.293385 1.000000 -2.217365
v 0.679891 0.700000 -1.900168
v 0.679891 0.000000 -1.900169
v 0.293386 0.000000 -2.217365
v -0.528246 1.000000 -1.883349
v -0.528245 0.000000 -1.883349
v -0.087285 0.000000 -1.647651
v 0.353675 0.000000 -1.411952
v 0.353676 0.700000 -1.411952
v -0.087285 1.000000 -1.647651
v -0.827966 0.000000 -1.159761
v -0.827966 1.000000 -1.159761
v -0.349496 1.000000 -1.014618
v 0.128974 0.700000 -0.869476
v 0.128975 0.000000 -0.869476
v -0.349496 0.000000 -1.014618
v -0.980761 1.000000 -0.391603
v -0.980761 0.000000 -0.391603
v -0.483169 0.000000 -0.342595
v 0.014423 0.000000 -0.293586
v 0.014423 0.700000 -0.293586
v -0.483169 1.000000 -0.342595
vt 0.026316 0.075967
vt 0.074324 0.039010
vt 0.050000 0.181453
vt 0.000000 0.216506
vt 0.125000 0.000000
vt 0.109827 0.099284
vt 0.103591 0.204514
vt 0.060448 0.241372
vt 0.155446 0.120629
vt 0.499456 0.319805
vt 0.499436 0.277875
vt 0.499464 0.140937
vt 0.499483 0.185525
vt 0.499424 0.189226
vt 0.499445 0.093072
vt 0.083138 0.102251
vt 0.124648 0.063312
vt 0.168640 0.022044
vt 0.499483 0.185525
vt 0.499464 0.140937
vt 0.499436 0.277875
vt 0.499456 0.319805
vt 0.499445 0.093072
vt 0.499424 0.189226
vt 0.557041 0.276409
vt 0.562941 0.318248
vt 0.549865 0.187845
vt 1.000000 0.216506
vt 0.949512 0.181111
vt 0.925207 0.038650
vt 0.973684 0.075967
vt 0.890173 0.099284
vt 0.875000 0.000000
vt 0.559890 0.183866
vt 0.554178 0.139381
vt 0.548048 0.091639
vt 0.915759 0.102251
vt 0.938389 0.241372
vt 0.874217 0.063312
vt 0.830191 0.022044
vt 0.843339 0.120629
vt 0.895211 0.204514
vt 0.439074 0.183866
vt 0.435970 0.318248
vt 0.444749 0.139381
vt 0.450840 0.091639
vt 0.448982 0.187845
vt 0.441830 0.276409
vt 0.246387 0.294669
vt 0.258926 0.158776
vt 0.199643 0.143540
vt 0.183824 0.280327
vt 0.281988 0.115897
vt 0.228700 0.101679
vt 0.306643 0.070057
vt 0.259692 0.057033
vt 0.250368 0.154455
vt 0.299213 0.167029
vt 0.213927 0.240832
vt 0.270249 0.254262
vt 0.309340 0.305723
vt 0.318681 0.170532
vt 0.327105 0.264634
vt 0.348715 0.176765
vt 0.354271 0.080148
vt 0.335866 0.126890
vt 0.752502 0.294669
vt 0.740017 0.158776
vt 0.680273 0.170532
vt 0.689560 0.305723
vt 0.716920 0.115897
vt 0.663052 0.126890
vt 0.692228 0.070057
vt 0.644608 0.080148
vt 0.650122 0.176765
vt 0.699614 0.167029
vt 0.671755 0.264634
vt 0.728600 0.254262
vt 0.815051 0.280327
vt 0.799289 0.143540
vt 0.784910 0.240832
vt 0.748448 0.154455
vt 0.739168 0.057033
vt 0.770196 0.101679
vt 0.857930 0.124734
vt 0.877068 0.262600
vt 0.840512 0.224277
vt 0.796428 0.139003
vt 0.785228 0.041041
vt 0.822697 0.084175
vt 0.620190 0.178879
vt 0.626339 0.313565
vt 0.614523 0.272004
vt 0.600150 0.183696
vt 0.596491 0.087335
vt 0.608754 0.134706
vt 0.378770 0.178879
vt 0.372568 0.313565
vt 0.384344 0.272003
vt 0.398693 0.183696
vt 0.402394 0.087335
vt 0.390169 0.134706
vt 0.140985 0.124734
vt 0.121790 0.262600
vt 0.158309 0.224277
vt 0.202373 0.139003
vt 0.213619 0.041041
vt 0.176185 0.084175
vt 0.890173 0.099284
vt 0.875000 0.000000
vt 1.000000 0.216506
vt 0.973684 0.075967
vt 0.925207 0.038650
vt 0.949512 0.181111
vt 0.125000 0.000000
vt 0.109827 0.099284
vt 0.026316 0.075967
vt 0.000000 0.216506
vt 0.050000 0.181453
vt 0.074324 0.039010
vt 0.060448 0.241372
vt 0.121790 0.262600
vt 0.183824 0.280327
vt 0.246387 0.294669
vt 0.309340 0.305723
vt 0.372568 0.313565
vt 0.435970 0.318248
vt 0.562941 0.318248
vt 0.626339 0.313565
vt 0.689560 0.305723
vt 0.752502 0.294669
vt 0.815051 0.280327
vt 0.877068 0.262600
vt 0.938389 0.241372
vt 1.000000 0.216506
vt 0.000000 0.216506
vn 0.000000 0.000000 1.000000
vn 0.000000 0.000000 1.000000
vn 0.000000 0.000000 1.000000
vn 0.000000 0.000000 1.000000
vn 0.000000 0.000000 1.000000
vn 0.000000 0.000000 1.000000
vn 0.000000 1.000000 0.000000
vn 0.260570 0.965370 0.012801
vn 0.259337 0.965449 0.025542
vn 0.000000 1.000000 0.000000
vn 0.514332 0.857219 0.025267
vn 0.512019 0.857493 0.050429
vn 0.000000 -1.000000 0.000000
vn 0.000000 -1.000000 0.000000
vn 0.000000 -1.000000 0.000000
vn 0.000000 -1.000000 0.000000
vn 0.000000 -1.000000 0.000000
vn 0.000000 -1.000000 0.000000
vn 0.998796 0.000000 0.049068
vn 0.995185 0.000000 0.098017
vn 0.995185 0.000000 0.098017
vn 0.998796 0.000000 0.049068
vn -0.995185 0.000000 -0.098018
vn -0.995185 0.000000 -0.098018
vn -0.998795 0.000000 -0.049070
vn -0.998795 0.000000 -0.049070
vn 0.000000 1.000000 0.000000
vn 0.175199 0.965370 0.193303
vn 0.165318 0.965449 0.201440
vn 0.000000 1.000000 0.000000
vn 0.345820 0.857220 0.381554
vn 0.326392 0.857493 0.397710
vn 1.000000 0.000000 0.000000
vn 1.000000 0.000000 0.000000
vn 1.000000 0.000000 0.000000
vn 1.000000 0.000000 0.000000
vn 1.000000 0.000000 0.000000
vn 1.000000 0.000000 0.000000
vn 0.000000 -1.000000 0.000000
vn 0.000000 -1.000000 0.000000
vn 0.000000 -1.000000 0.000000
vn 0.000000 -1.000000 0.000000
vn 0.000000 -1.000000 0.000000
vn 0.000000 -1.000000 0.000000
vn 0.671559 -0.000001 0.740951
vn 0.634393 -0.000001 0.773010
vn 0.634393 -0.000001 0.773010
vn 0.671559 -0.000001 0.740951
vn -0.634393 -0.000000 -0.773010
vn -0.634393 -0.000000 -0.773010
vn -0.671559 -0.000000 -0.740951
vn -0.671559 -0.000000 -0.740951
vn -0.060405 0.000000 -0.998174
vn -0.103392 0.000000 -0.994641
vn -0.103392 0.000000 -0.994641
vn -0.060405 0.000000 -0.998174
vn 0.000000 -1.000000 0.000000
vn 0.000000 -1.000000 0.000000
vn 0.000000 -1.000000 0.000000
vn 0.000000 -1.000000 0.000000
vn 0.000000 -1.000000 0.000000
vn 0.000000 -1.000000 0.000000
vn 0.105170 0.000000 0.994454
vn 0.105170 0.000000 0.994454
vn 0.064124 0.000000 0.997942
vn 0.064124 0.000000 0.997942
vn 0.026318 0.965432 0.259324
vn 0.052136 0.856913 0.512818
vn 0.028768 0.856130 0.515960
vn 0.014539 0.965296 0.260754
vn 0.000000 1.000000 0.000000
vn 0.000000 1.000000 0.000000
vn -0.740951 -0.000000 -0.671559
vn -0.773011 -0.000000 -0.634393
vn -0.773011 -0.000000 -0.634393
vn -0.740951 -0.000000 -0.671559
vn 0.000000 -1.000000 0.000000
vn 0.000000 -1.000000 0.000000
vn 0.000000 -1.000000 0.000000
vn 0.000000 -1.000000 0.000000
vn 0.000000 -1.000000 0.000000
vn 0.000000 -1.000000 0.000000
vn 0.773011 -0.000001 0.634393
vn 0.773011 -0.000001 0.634393
vn 0.740951 -0.000001 0.671559
vn 0.740951 -0.000001 0.671559
vn 0.201440 0.965449 0.165318
vn 0.397710 0.857493 0.326392
vn 0.381554 0.857220 0.345820
vn 0.193302 0.965370 0.175199
vn 0.000000 1.000000 -0.000000
vn 0.000000 1.000000 -0.000000
vn -0.923879 -0.000000 -0.382684
vn -0.923879 -0.000000 -0.382684
vn -0.956940 -0.000000 -0.290284
vn -0.956940 -0.000000 -0.290284
vn 0.000000 -1.000000 0.000000
vn 0.000000 -1.000000 0.000000
vn 0.000000 -1.000000 0.000000
vn 0.000000 -1.000000 0.000000
vn 0.000000 -1.000000 0.000000
vn 0.000000 -1.000000 0.000000
vn 0.956940 0.000001 0.290284
vn 0.956941 0.000001 0.290284
vn 0.923879 -0.000000 0.382684
vn 0.923879 -0.000000 0.382684
vn 0.249370 0.965449 0.075646
vn 0.492342 0.857493 0.149350
vn 0.475332 0.857493 0.196889
vn 0.240755 0.965449 0.099724
vn 0.000000 1.000000 0.000000
vn 0.000000 1.000000 0.000000
vn -0.881921 -0.000000 -0.471397
vn -0.881921 -0.000000 -0.471397
vn 0.229821 0.965449 0.122842
vn 0.000000 1.000000 0.000000
vn 0.453745 0.857493 0.242531
vn 0.881921 -0.000001 0.471398
vn 0.881921 -0.000001 0.471398
vn 0.000000 -1.000000 0.000000
vn 0.000000 -1.000000 0.000000
vn 0.000000 -1.000000 0.000000
vn -0.382684 -0.000000 -0.923880
vn -0.382683 -0.000000 -0.923880
vn -0.471396 -0.000000 -0.881922
vn -0.471396 -0.000000 -0.881922
vn 0.000000 -1.000000 0.000000
vn 0.000000 -1.000000 0.000000
vn 0.000000 -1.000000 0.000000
vn 0.000000 -1.000000 0.000000
vn 0.000000 -1.000000 0.000000
vn 0.000000 -1.000000 0.000000
vn 0.471397 -0.000000 0.881921
vn 0.471397 -0.000000 0.881921
vn 0.382683 -0.000000 0.923880
vn 0.382683 -0.000000 0.923880
vn 0.122842 0.965449 0.229821
vn 0.242532 0.857493 0.453745
vn 0.196889 0.857493 0.475332
vn 0.099724 0.965449 0.240755
vn 0.000000 1.000000 0.000000
vn 0.000000 1.000000 0.000000
vn -0.290285 -0.000000 -0.956940
vn -0.290285 -0.000000 -0.956940
vn 0.075646 0.965449 0.249370
vn 0.000000 1.000000 0.000000
vn 0.149350 0.857493 0.492342
vn 0.290284 -0.000000 0.956940
vn 0.290284 -0.000000 0.956940
vn 0.000000 -1.000000 0.000000
vn 0.000000 -1.000000 0.000000
vn 0.000000 -1.000000 0.000000
vn -0.195090 0.000000 -0.980785
vn -0.195090 0.000000 -0.980785
vn 0.000000 1.000000 0.000000
vn 0.050839 0.965449 0.255584
vn 0.100373 0.857493 0.504610
vn 0.195091 0.000000 0.980785
vn 0.195091 0.000000 0.980785
vn 0.000000 -1.000000 0.000000
vn 0.000000 -1.000000 0.000000
vn 0.000000 -1.000000 0.000000
vn -0.555570 -0.000000 -0.831470
vn -0.555570 -0.000000 -0.831470
vn 0.000000 1.000000 0.000000
vn 0.144777 0.965449 0.216674
vn 0.285838 0.857493 0.427787
vn 0.555570 -0.000000 0.831470
vn 0.555570 -0.000000 0.831470
vn 0.000000 -1.000000 0.000000
vn 0.000000 -1.000000 0.000000
vn 0.000000 -1.000000 0.000000
vn -0.831470 -0.000000 -0.555570
vn -0.831470 -0.000000 -0.555570
vn 0.000000 1.000000 0.000000
vn 0.216674 0.965449 0.144777
vn 0.427788 0.857493 0.285838
vn 0.831470 -0.000000 0.555570
vn 0.831470 -0.000000 0.555570
vn 0.000000 -1.000000 0.000000
vn 0.000000 -1.000000 0.000000
vn 0.000000 -1.000000 0.000000
vn -0.980785 0.000000 -0.195090
vn -0.980785 0.000000 -0.195090
vn 0.000000 1.000000 0.000000
vn 0.255585 0.965449 0.050839
vn 0.504610 0.857493 0.100373
vn 0.980785 0.000001 0.195090
vn 0.980785 0.000001 0.195090
vn 0.000000 -1.000000 0.000000
vn 0.000000 -1.000000 0.000000
vn 0.000000 -1.000000 0.000000
s 1
g outsidebend_LP
usemtl initialShadingGroup
f 1/117/1 2/120/2 5/119/3 4/118/4
f 2/120/2 3/115/5 6/116/6 5/119/3
s 2
f 4/4/7 5/3/8 108/7/9 103/8/10
f 5/3/8 6/6/11 107/9/12 108/7/9
s 3
f 104/16/13 105/17/14 2/2/15 1/1/16
f 105/17/14 106/18/17 3/5/18 2/2/15
s 4
f 3/5/19 106/18/20 107/9/21 6/6/22
s 5
f 103/121/23 104/16/24 1/1/25 4/136/26
s 6
f 16/22/27 17/21/28 84/25/29 79/26/30
f 17/21/28 18/24/31 83/27/32 84/25/29
s 7
f 19/111/33 20/114/34 23/113/35 22/112/36
f 20/114/34 21/109/37 24/110/38 23/113/35
s 8
f 80/34/39 81/35/40 14/20/41 13/19/42
f 81/35/40 82/36/43 15/23/44 14/20/41
s 9
f 15/23/45 82/36/46 83/27/47 18/24/48
s 10
f 79/128/49 80/34/50 13/19/51 16/22/52
f 22/31/53 61/37/54 62/134/55 19/28/56
s 8
f 22/31/57 23/30/58 66/39/59 61/37/60
f 23/30/58 24/33/61 65/40/62 66/39/59
s 9
f 64/41/63 65/40/64 24/33/65 21/32/66
s 6
f 63/42/67 64/41/68 21/32/69 20/29/70
f 62/38/71 63/42/67 20/29/70 19/135/72
s 5
f 10/13/73 85/43/74 86/127/75 7/10/76
s 3
f 10/13/77 11/12/78 90/45/79 85/43/80
f 11/12/78 12/15/81 89/46/82 90/45/79
s 4
f 88/47/83 89/46/84 12/15/85 9/14/86
s 2
f 87/48/87 88/47/88 9/14/89 8/11/90
f 86/44/91 87/48/87 8/11/90 7/10/92
s 5
f 31/49/93 32/50/94 97/51/95 98/123/96
s 3
f 32/50/97 33/53/98 102/54/99 97/51/100
f 33/53/98 34/55/101 101/56/102 102/54/99
s 4
f 100/57/103 101/56/104 34/55/105 35/58/106
s 2
f 99/59/107 100/57/108 35/58/109 36/60/110
f 98/52/111 99/59/107 36/60/110 31/124/112
s 5
f 91/125/113 92/62/114 32/50/94 31/49/93
s 2
f 31/124/112 36/60/110 96/63/115 91/61/116
f 36/60/110 35/58/109 95/64/117 96/63/115
s 4
f 35/58/106 34/55/105 94/65/118 95/64/119
s 3
f 93/66/120 94/65/121 34/55/101 33/53/98
f 92/62/122 93/66/120 33/53/98 32/50/97
s 10
f 25/67/123 26/68/124 73/69/125 74/130/126
s 8
f 26/68/127 27/71/128 78/72/129 73/69/130
f 27/71/128 28/73/131 77/74/132 78/72/129
s 9
f 76/75/133 77/74/134 28/73/135 29/76/136
s 6
f 75/77/137 76/75/138 29/76/139 30/78/140
f 74/70/141 75/77/137 30/78/140 25/131/142
s 10
f 67/132/143 68/80/144 26/68/124 25/67/123
s 6
f 25/131/142 30/78/140 72/81/145 67/79/146
f 30/78/140 29/76/139 71/82/147 72/81/145
s 9
f 29/76/136 28/73/135 70/83/148 71/82/149
s 8
f 69/84/150 70/83/151 28/73/131 27/71/128
f 68/80/152 69/84/150 27/71/128 26/68/127
s 10
f 62/134/55 61/37/54 55/85/153 56/86/154
s 6
f 56/133/155 57/87/156 63/42/67 62/38/71
f 57/87/156 58/88/157 64/41/68 63/42/67
s 9
f 58/88/158 59/89/159 65/40/64 64/41/63
s 8
f 66/39/59 65/40/62 59/89/160 60/90/161
f 61/37/60 66/39/59 60/90/161 55/85/162
s 10
f 56/86/154 55/85/153 68/80/144 67/132/143
s 8
f 55/85/162 60/90/161 69/84/150 68/80/152
f 60/90/161 59/89/160 70/83/151 69/84/150
s 9
f 71/82/149 70/83/148 59/89/159 58/88/158
s 6
f 72/81/145 71/82/147 58/88/157 57/87/156
f 67/79/146 72/81/145 57/87/156 56/133/155
s 10
f 74/130/126 73/69/125 50/91/163 49/92/164
s 6
f 49/129/165 54/93/166 75/77/137 74/70/141
f 54/93/166 53/94/167 76/75/138 75/77/137
s 9
f 53/94/168 52/95/169 77/74/134 76/75/133
s 8
f 78/72/129 77/74/132 52/95/170 51/96/171
f 73/69/130 78/72/129 51/96/171 50/91/172
s 10
f 49/92/164 50/91/163 80/34/50 79/128/49
s 8
f 50/91/172 51/96/171 81/35/40 80/34/39
f 51/96/171 52/95/170 82/36/43 81/35/40
s 9
f 83/27/47 82/36/46 52/95/169 53/94/168
s 6
f 84/25/29 83/27/32 53/94/167 54/93/166
f 79/26/30 84/25/29 54/93/166 49/129/165
s 5
f 86/127/75 85/43/74 43/97/173 44/98/174
s 2
f 44/126/175 45/99/176 87/48/87 86/44/91
f 45/99/176 46/100/177 88/47/88 87/48/87
s 4
f 46/100/178 47/101/179 89/46/84 88/47/83
s 3
f 90/45/79 89/46/82 47/101/180 48/102/181
f 85/43/80 90/45/79 48/102/181 43/97/182
s 5
f 44/98/174 43/97/173 92/62/114 91/125/113
s 3
f 43/97/182 48/102/181 93/66/120 92/62/122
f 48/102/181 47/101/180 94/65/121 93/66/120
s 4
f 95/64/119 94/65/118 47/101/179 46/100/178
s 2
f 96/63/115 95/64/117 46/100/177 45/99/176
f 91/61/116 96/63/115 45/99/176 44/126/175
s 5
f 98/123/96 97/51/95 38/103/183 37/104/184
s 2
f 37/122/185 42/105/186 99/59/107 98/52/111
f 42/105/186 41/106/187 100/57/108 99/59/107
s 4
f 41/106/188 40/107/189 101/56/104 100/57/103
s 3
f 102/54/99 101/56/102 40/107/190 39/108/191
f 97/51/100 102/54/99 39/108/191 38/103/192
s 5
f 37/104/184 38/103/183 104/16/24 103/121/23
s 3
f 38/103/192 39/108/191 105/17/14 104/16/13
f 39/108/191 40/107/190 106/18/17 105/17/14
s 4
f 107/9/21 106/18/20 40/107/189 41/106/188
s 2
f 108/7/9 107/9/12 41/106/187 42/105/186
f 103/8/10 108/7/9 42/105/186 37/122/185
