# This file uses centimeters as units for non-parametric coordinates.

mtllib Straight_HP.mtl
g default
v 0.008428 0.008428 -0.028776
v 0.028776 0.000000 -0.028776
v 0.028776 0.008428 -0.008428
v 0.028776 0.028776 0.000000
v 0.008428 0.028776 -0.008428
v 0.000000 0.028776 -0.028776
v 0.500000 0.000000 -0.028776
v 0.520347 0.000000 -0.028776
v 0.520346 0.008428 -0.008428
v 0.520347 0.028776 0.000000
v 0.500000 0.028776 0.000000
v 0.479653 0.028776 0.000000
v 0.479653 0.008428 -0.008428
v 0.479653 0.000000 -0.028776
v 0.991572 0.008428 -0.028769
v 1.000000 0.028776 -0.028776
v 0.991572 0.028776 -0.008428
v 0.971224 0.028776 0.000000
v 0.971214 0.008428 -0.008428
v 0.971224 0.000000 -0.028776
v 0.008428 0.991572 -0.028777
v 0.000000 0.971224 -0.028776
v 0.008428 0.971224 -0.008428
v 0.028776 0.971224 0.000000
v 0.028776 0.991572 -0.008428
v 0.028776 1.000000 -0.028776
v 0.499120 0.997071 -0.028626
v 0.478857 1.000000 -0.028672
v 0.479262 0.991580 -0.008396
v 0.479668 0.971246 0.000000
v 0.499110 0.966085 0.000000
v 0.520497 0.952155 0.000000
v 0.519027 0.977890 -0.008351
v 0.517693 0.988525 -0.028598
v 0.994707 0.672837 -0.029469
v 0.980113 0.688611 -0.029454
v 0.976173 0.680618 -0.008448
v 0.972293 0.660659 0.000000
v 0.991153 0.653056 -0.008449
v 1.000000 0.652009 -0.029454
v 0.008428 0.971225 -2.991572
v 0.000000 0.971224 -2.971225
v 0.008428 0.991572 -2.971224
v 0.028776 1.000000 -2.971225
v 0.028776 0.991572 -2.991572
v 0.028776 0.971224 -3.000000
v 0.499103 0.966024 -3.000000
v 0.479606 0.971158 -3.000000
v 0.479212 0.991554 -2.991589
v 0.478819 1.000000 -2.971276
v 0.499110 0.997071 -2.971345
v 0.517693 0.988525 -2.971402
v 0.519027 0.977890 -2.991649
v 0.520497 0.952155 -3.000000
v 0.991139 0.653207 -2.991664
v 0.972293 0.660659 -3.000000
v 0.976292 0.680525 -2.991664
v 0.980342 0.688462 -2.970885
v 0.994768 0.672870 -2.970877
v 1.000000 0.652283 -2.970885
v 0.008428 0.008428 -2.971225
v 0.000000 0.028776 -2.971225
v 0.008428 0.028776 -2.991572
v 0.028776 0.028776 -3.000000
v 0.028776 0.008428 -2.991572
v 0.028776 0.000000 -2.971225
v 0.500000 0.000000 -2.971225
v 0.479653 0.000000 -2.971225
v 0.479653 0.008428 -2.991572
v 0.479653 0.028776 -3.000000
v 0.500000 0.028776 -3.000000
v 0.520347 0.028776 -3.000000
v 0.520346 0.008428 -2.991572
v 0.520347 0.000000 -2.971225
v 0.991572 0.008428 -2.971228
v 0.971224 0.000000 -2.971225
v 0.971214 0.008428 -2.991572
v 0.971224 0.028776 -3.000000
v 0.991572 0.028776 -2.991572
v 1.000000 0.028776 -2.971225
v 0.012168 0.012168 -0.012168
v 0.500003 0.008428 -0.008428
v 0.987833 0.012168 -0.012167
v 0.012168 0.987832 -0.012168
v 0.499274 0.988008 -0.008381
v 0.989827 0.670183 -0.012268
v 0.012168 0.987833 -2.987832
v 0.499264 0.987990 -2.991609
v 0.989866 0.670204 -2.987891
v 0.012168 0.012168 -2.987833
v 0.500003 0.008428 -2.991572
v 0.987833 0.012168 -2.987833
vt 0.538940 0.030638
vt 0.054345 0.642691
vt 0.454570 0.030643
vt 0.446955 0.030644
vt 0.213053 0.648465
vt 0.362586 0.030649
vt 0.351816 0.030650
vt 0.043274 0.946969
vt 0.188848 0.952272
vt 0.202254 0.946588
vt 0.351545 0.857783
vt 0.235194 0.030784
vt 0.549745 0.581239
vt 0.031100 0.581273
vt 0.115314 0.581277
vt 0.123223 0.581300
vt 0.226410 0.581196
vt 0.235179 0.581196
vt 0.351852 0.581252
vt 0.454606 0.581245
vt 0.870080 0.657462
vt 0.734224 0.655841
vt 0.362621 0.581251
vt 0.721962 0.655694
vt 0.586105 0.654073
vt 0.199914 0.647987
vt 0.358622 0.653761
vt 0.031064 0.030671
vt 0.115285 0.030646
vt 0.123188 0.030631
vt 0.226324 0.030785
vt 0.866692 0.941437
vt 0.730850 0.939796
vt 0.718597 0.933923
vt 0.583511 0.844466
vt 0.538976 0.581240
vt 0.446991 0.581246
vt 0.549709 0.030637
vt 0.726064 0.030625
vt 0.726099 0.581228
vt 0.544325 0.030590
vt 0.051035 0.633268
vt 0.541054 0.025253
vt 0.547595 0.025252
vt 0.045187 0.638705
vt 0.450763 0.030669
vt 0.213547 0.639180
vt 0.446864 0.025259
vt 0.206486 0.648172
vt 0.454662 0.025258
vt 0.200094 0.638691
vt 0.357202 0.030601
vt 0.368045 0.650463
vt 0.353923 0.025265
vt 0.360473 0.025265
vt 0.362604 0.644604
vt 0.731448 0.029555
vt 0.025680 0.029601
vt 0.033851 0.950278
vt 0.728177 0.025241
vt 0.028953 0.025286
vt 0.039293 0.956126
vt 0.119221 0.030678
vt 0.188348 0.961550
vt 0.115343 0.025280
vt 0.195187 0.950940
vt 0.123474 0.025280
vt 0.201346 0.958043
vt 0.230759 0.030745
vt 0.355443 0.865881
vt 0.227472 0.025273
vt 0.234066 0.025273
vt 0.360521 0.857263
vt 0.728214 0.586612
vt 0.875322 0.944945
vt 0.025716 0.582343
vt 0.731484 0.582297
vt 0.869988 0.950148
vt 0.028989 0.586657
vt 0.724987 0.938279
vt 0.115372 0.586652
vt 0.730890 0.948488
vt 0.119255 0.581248
vt 0.718927 0.944636
vt 0.123510 0.586651
vt 0.575172 0.843619
vt 0.234076 0.586644
vt 0.227534 0.586645
vt 0.579480 0.851812
vt 0.230794 0.581234
vt 0.544360 0.581286
vt 0.878792 0.654161
vt 0.547631 0.586624
vt 0.541090 0.586624
vt 0.873588 0.648832
vt 0.450798 0.581220
vt 0.734475 0.647172
vt 0.454698 0.586630
vt 0.728094 0.655715
vt 0.446901 0.586630
vt 0.721919 0.647022
vt 0.357237 0.581299
vt 0.582808 0.645362
vt 0.360510 0.586636
vt 0.353960 0.586636
vt 0.577475 0.650576
vt 0.544324 0.025253
vt 0.045392 0.633062
vt 0.206821 0.638936
vt 0.450762 0.025259
vt 0.357201 0.025265
vt 0.368251 0.644809
vt 0.731448 0.025241
vt 0.033645 0.955921
vt 0.025679 0.025286
vt 0.195075 0.961794
vt 0.119241 0.025280
vt 0.230759 0.025273
vt 0.360313 0.862969
vt 0.731484 0.586612
vt 0.025716 0.586658
vt 0.875259 0.950211
vt 0.119278 0.586652
vt 0.724601 0.948413
vt 0.575109 0.848902
vt 0.230795 0.586644
vt 0.544361 0.586624
vt 0.878854 0.648895
vt 0.728196 0.647097
vt 0.450799 0.586630
vt 0.357237 0.586636
vt 0.577538 0.645299
vn -0.017833 -0.999837 0.002793
vn -0.382507 -0.923951 0.001578
vn -0.382507 -0.923951 -0.001578
vn -0.017833 -0.999837 -0.002793
vn -0.923951 -0.382507 0.001578
vn -0.999958 -0.008729 0.002820
vn -0.999958 -0.008729 -0.002820
vn -0.923951 -0.382507 -0.001578
vn -0.017776 -0.008645 0.999805
vn -0.010481 -0.381491 0.924313
vn 0.000000 -0.382682 0.923880
vn -0.000000 -0.008762 0.999962
vn -0.012953 -0.924400 0.381205
vn 0.000000 -0.999996 0.002845
vn 0.000000 -0.923880 0.382683
vn -0.924154 -0.006321 0.381969
vn -0.924154 0.006321 0.381969
vn -0.999958 0.008729 0.002820
vn -0.382105 -0.005096 0.924105
vn -0.017777 0.008625 0.999805
vn -0.382106 0.005096 0.924105
vn -0.000000 -0.999996 0.002845
vn 0.000000 -0.999996 0.002845
vn 0.000000 -0.999996 -0.002845
vn 0.000000 -0.999996 -0.002845
vn 0.000000 -0.999996 -0.002845
vn 0.000000 -0.010450 0.999945
vn 0.000000 -0.382682 0.923880
vn 0.010474 -0.381493 0.924312
vn 0.014510 -0.010511 0.999839
vn -0.000000 -0.923880 0.382684
vn 0.017834 -0.999837 0.002792
vn 0.012934 -0.924397 0.381211
vn -0.000002 -0.008808 0.999961
vn 0.004757 0.010638 0.999932
vn 0.000094 0.008750 0.999962
vn 0.013283 0.020536 0.999701
vn 0.999911 -0.013056 0.002878
vn 0.923951 -0.382507 0.001578
vn 0.923951 -0.382507 -0.001577
vn 0.999911 -0.013055 -0.002881
vn 0.382506 -0.923952 0.001579
vn 0.017834 -0.999837 -0.002792
vn 0.382506 -0.923952 -0.001579
vn 0.394178 -0.008017 0.918999
vn 0.396578 0.003715 0.917993
vn 0.012268 0.006041 0.999906
vn 0.923155 -0.008785 0.384328
vn 0.999962 0.008140 0.003045
vn 0.923207 0.006524 0.384247
vn -0.923951 0.382508 0.001578
vn -0.923951 0.382508 -0.001578
vn -0.999958 0.008729 -0.002820
vn -0.382507 0.923951 0.001578
vn -0.017863 0.999837 0.002793
vn -0.017863 0.999837 -0.002797
vn -0.382507 0.923951 -0.001578
vn -0.013054 0.924237 0.381597
vn 0.007112 0.923456 0.383637
vn 0.006230 0.999976 0.002900
vn -0.010537 0.380985 0.924521
vn 0.003017 0.381681 0.924289
vn 0.283279 0.959034 0.002751
vn 0.283308 0.959025 -0.002761
vn 0.006231 0.999976 -0.002903
vn 0.539813 0.841783 0.001891
vn 0.539814 0.841782 -0.001892
vn 0.501848 0.776073 0.381915
vn 0.509652 0.771671 0.380499
vn 0.551813 0.833963 0.002980
vn 0.210319 0.327567 0.921122
vn 0.216704 0.326166 0.920139
vn 0.878675 0.477416 0.001956
vn 0.878675 0.477416 -0.001897
vn 0.551819 0.833959 -0.002966
vn 0.999962 0.008146 -0.003030
vn -0.924154 0.006322 -0.381969
vn -0.924154 -0.006321 -0.381969
vn -0.382102 0.005096 -0.924106
vn -0.017780 0.008634 -0.999805
vn -0.017778 -0.008646 -0.999805
vn -0.382101 -0.005095 -0.924106
vn -0.010461 0.380785 -0.924604
vn 0.003066 0.381466 -0.924378
vn 0.000095 0.008758 -0.999962
vn -0.012988 0.924154 -0.381798
vn 0.007134 0.923366 -0.383855
vn 0.004734 0.010649 -0.999932
vn 0.000000 -0.008802 -0.999961
vn -0.000000 -0.008763 -0.999962
vn 0.013192 0.020407 -0.999705
vn 0.000000 -0.010450 -0.999945
vn 0.209095 0.325967 -0.921968
vn 0.215389 0.324384 -0.921077
vn 0.012239 0.006026 -0.999907
vn 0.501243 0.775449 -0.383972
vn 0.508851 0.771107 -0.382708
vn 0.394404 0.003602 -0.918930
vn 0.392103 -0.008103 -0.919886
vn 0.014417 -0.010514 -0.999841
vn 0.922296 0.006198 -0.386435
vn 0.922310 -0.008951 -0.386346
vn -0.012953 -0.924400 -0.381205
vn 0.000000 -0.923880 -0.382683
vn -0.010481 -0.381488 -0.924314
vn 0.000000 -0.382679 -0.923881
vn 0.000000 -0.923880 -0.382684
vn 0.012936 -0.924398 -0.381211
vn 0.000000 -0.382679 -0.923881
vn 0.010475 -0.381490 -0.924313
vn -0.887919 -0.325269 0.325269
vn -0.325268 -0.887920 0.325267
vn -0.325262 -0.325269 0.887922
vn 0.000000 -0.923880 0.382682
vn 0.000000 -0.382682 0.923880
vn 0.325126 -0.887927 0.325391
vn 0.887937 -0.325192 0.325296
vn 0.325158 -0.325319 0.887942
vn -0.325286 0.887914 0.325264
vn -0.887914 0.325285 0.325266
vn -0.325283 0.325280 0.887910
vn 0.300505 0.869254 0.392547
vn 0.128577 0.352444 0.926958
vn 0.920443 0.194746 0.338907
vn 0.664203 0.666269 0.338999
vn 0.460201 0.250090 0.851863
vn -0.325263 0.325278 -0.887918
vn -0.887918 0.325283 -0.325258
vn -0.325273 0.887922 -0.325256
vn 0.127679 0.352255 -0.927154
vn 0.299489 0.869429 -0.392938
vn 0.918947 0.193619 -0.343580
vn 0.455097 0.247316 -0.855408
vn 0.662445 0.665624 -0.343672
vn -0.325267 -0.887921 -0.325265
vn -0.887921 -0.325267 -0.325266
vn -0.325260 -0.325263 -0.887924
vn 0.000000 -0.923880 -0.382682
vn 0.000000 -0.382679 -0.923881
vn 0.887935 -0.325221 -0.325274
vn 0.325156 -0.887923 -0.325372
vn 0.325175 -0.325337 -0.887929
s 1
g straight_LP
usemtl initialShadingGroup
f 2/1/1 1/41/2 61/91/3 66/36/4
s 2
f 1/41/5 6/38/6 62/13/7 61/91/8
s 3
f 4/2/9 3/42/10 13/51/11 12/26/12
s 1
f 3/43/13 2/1/1 14/3/14 13/50/15
s 2
f 6/38/6 5/44/16 23/60/17 22/39/18
s 3
f 5/45/19 4/2/9 24/8/20 23/59/21
s 1
f 8/4/22 7/46/23 67/96/24 74/37/25
f 7/46/23 14/3/14 68/20/26 67/96/24
s 3
f 10/5/27 9/47/28 19/56/29 18/27/30
s 1
f 9/48/31 8/4/22 20/6/32 19/55/33
s 3
f 12/26/12 11/49/34 31/66/35 30/9/36
f 11/49/34 10/5/27 32/10/37 31/66/35
s 6
f 16/7/38 15/52/39 75/102/40 80/19/41
s 1
f 15/52/42 20/6/32 76/23/43 75/102/44
s 3
f 18/27/30 17/53/45 39/73/46 38/11/47
s 6
f 17/54/48 16/7/38 40/12/49 39/72/50
s 2
f 22/39/18 21/57/51 43/77/52 42/40/53
s 6
f 21/58/54 26/28/55 44/14/56 43/76/57
f 26/28/55 25/61/58 29/65/59 28/29/60
s 3
f 25/62/61 24/8/20 30/9/36 29/64/62
s 6
f 28/29/60 27/63/63 51/83/64 50/15/65
f 27/63/63 34/30/66 52/16/67 51/83/64
f 34/30/66 33/67/68 37/71/69 36/31/70
s 3
f 33/68/71 32/10/37 38/11/47 37/70/72
s 6
f 36/31/70 35/69/73 59/90/74 58/17/75
f 35/69/73 40/12/49 60/18/76 59/90/74
s 2
f 42/40/53 41/74/77 63/93/78 62/13/7
s 8
f 41/75/79 46/32/80 64/21/81 63/92/82
f 46/32/80 45/78/83 49/82/84 48/33/85
s 6
f 45/79/86 44/14/56 50/15/65 49/81/87
s 8
f 48/33/85 47/80/88 71/99/89 70/22/90
f 47/80/88 54/34/91 72/24/92 71/99/89
f 54/34/91 53/84/93 57/89/94 56/35/95
s 6
f 53/85/96 52/16/67 58/17/75 57/88/97
s 8
f 56/35/95 55/86/98 79/106/99 78/25/100
s 6
f 55/87/101 60/18/76 80/19/41 79/105/102
s 1
f 66/36/4 65/94/103 69/98/104 68/20/26
s 8
f 65/95/105 64/21/81 70/22/90 69/97/106
s 1
f 74/37/25 73/100/107 77/104/108 76/23/43
s 8
f 73/101/109 72/24/92 78/25/100 77/103/110
s 3
f 4/2/9 12/26/12 30/9/36 24/8/20
f 10/5/27 18/27/30 38/11/47 32/10/37
s 6
f 26/28/55 28/29/60 50/15/65 44/14/56
f 34/30/66 36/31/70 58/17/75 52/16/67
s 8
f 46/32/80 48/33/85 70/22/90 64/21/81
f 54/34/91 56/35/95 78/25/100 72/24/92
s 1
f 66/36/4 68/20/26 14/3/14 2/1/1
f 74/37/25 76/23/43 20/6/32 8/4/22
s 6
f 16/7/38 80/19/41 60/18/76 40/12/49
s 2
f 62/13/7 6/38/6 22/39/18 42/40/53
f 5/44/16 6/38/6 1/41/5 81/107/111
s 1
f 1/41/2 2/1/1 3/43/13 81/107/112
s 3
f 3/42/10 4/2/9 5/45/19 81/108/113
s 1
f 13/50/15 14/3/14 7/46/23 82/110/114
f 7/46/23 8/4/22 9/48/31 82/110/114
s 3
f 9/47/28 10/5/27 11/49/34 82/109/115
f 11/49/34 12/26/12 13/51/11 82/109/115
s 1
f 19/55/33 20/6/32 15/52/42 83/111/116
s 6
f 15/52/39 16/7/38 17/54/48 83/111/117
s 3
f 17/53/45 18/27/30 19/56/29 83/112/118
s 6
f 25/61/58 26/28/55 21/58/54 84/115/119
s 2
f 21/57/51 22/39/18 23/60/17 84/113/120
s 3
f 23/59/21 24/8/20 25/62/61 84/114/121
s 6
f 33/67/68 34/30/66 27/63/63 85/117/122
f 27/63/63 28/29/60 29/65/59 85/117/122
s 3
f 29/64/62 30/9/36 31/66/35 85/116/123
f 31/66/35 32/10/37 33/68/71 85/116/123
s 6
f 39/72/50 40/12/49 35/69/73 86/118/124
f 35/69/73 36/31/70 37/71/69 86/118/125
s 3
f 37/70/72 38/11/47 39/73/46 86/119/126
s 8
f 45/78/83 46/32/80 41/75/79 87/122/127
s 2
f 41/74/77 42/40/53 43/77/52 87/120/128
s 6
f 43/76/57 44/14/56 45/79/86 87/121/129
s 8
f 53/84/93 54/34/91 47/80/88 88/124/130
f 47/80/88 48/33/85 49/82/84 88/124/130
s 6
f 49/81/87 50/15/65 51/83/64 88/123/131
f 51/83/64 52/16/67 53/85/96 88/123/131
f 59/90/74 60/18/76 55/87/101 89/126/132
s 8
f 55/86/98 56/35/95 57/89/94 89/125/133
s 6
f 57/88/97 58/17/75 59/90/74 89/126/134
s 1
f 65/94/103 66/36/4 61/91/3 90/127/135
s 2
f 61/91/8 62/13/7 63/93/78 90/127/136
s 8
f 63/92/82 64/21/81 65/95/105 90/128/137
s 1
f 73/100/107 74/37/25 67/96/24 91/130/138
f 67/96/24 68/20/26 69/98/104 91/130/138
s 8
f 69/97/106 70/22/90 71/99/89 91/129/139
f 71/99/89 72/24/92 73/101/109 91/129/139
s 6
f 79/105/102 80/19/41 75/102/40 92/131/140
s 1
f 75/102/44 76/23/43 77/104/108 92/131/141
s 8
f 77/103/110 78/25/100 79/106/99 92/132/142
