# This file uses centimeters as units for non-parametric coordinates.

mtllib Wall_LP.mtl
g default
v 0.000000 0.000000 0.000000
v 0.500000 0.000000 0.000000
v 1.000000 0.000000 0.000000
v 0.000000 1.000000 0.000000
v 0.500000 1.000000 0.000000
v 1.000000 0.675713 0.000000
v 0.000000 1.000000 -3.000000
v 0.500000 1.000000 -3.000000
v 1.000000 0.675713 -3.000000
v 0.000000 0.000000 -3.000000
v 0.500000 0.000000 -3.000000
v 1.000000 0.000000 -3.000000
vt 0.544324 0.025253
vt 0.450762 0.025259
vt 0.119241 0.025280
vt 0.025679 0.025286
vt 0.357201 0.025265
vt 0.230759 0.025273
vt 0.724601 0.948413
vt 0.875259 0.950211
vt 0.230795 0.586644
vt 0.450799 0.586630
vt 0.544361 0.586624
vt 0.357237 0.586636
vt 0.575109 0.848902
vt 0.577538 0.645299
vt 0.025716 0.586658
vt 0.731484 0.586612
vt 0.878854 0.648895
vt 0.033645 0.955921
vt 0.731448 0.025241
vt 0.368251 0.644809
vt 0.360313 0.862969
vt 0.045392 0.633062
vt 0.728196 0.647097
vt 0.119278 0.586652
vt 0.195075 0.961794
vt 0.206821 0.638936
vn 0.000000 0.000000 1.000000
vn 0.000000 0.000000 1.000000
vn 0.000000 0.000000 1.000000
vn 0.000000 0.000000 1.000000
vn 0.000000 0.000000 1.000000
vn 0.000000 0.000000 1.000000
vn 0.000000 1.000000 0.000000
vn 0.308473 0.951233 0.000000
vn 0.308473 0.951233 0.000000
vn 0.000000 1.000000 0.000000
vn 0.544148 0.838990 0.000000
vn 0.544148 0.838990 0.000000
vn 0.000000 0.000000 -1.000000
vn 0.000000 0.000000 -1.000000
vn 0.000000 0.000000 -1.000000
vn 0.000000 0.000000 -1.000000
vn 0.000000 0.000000 -1.000000
vn 0.000000 0.000000 -1.000000
vn 0.000000 -1.000000 0.000000
vn 0.000000 -1.000000 0.000000
vn 0.000000 -1.000000 0.000000
vn 0.000000 -1.000000 0.000000
vn 0.000000 -1.000000 0.000000
vn 0.000000 -1.000000 0.000000
vn 1.000000 0.000000 0.000000
vn 1.000000 0.000000 0.000000
vn 1.000000 0.000000 0.000000
vn 1.000000 0.000000 0.000000
vn -1.000000 0.000000 0.000000
vn -1.000000 0.000000 0.000000
vn -1.000000 0.000000 0.000000
vn -1.000000 0.000000 0.000000
s 1
g wall_LP
usemtl initialShadingGroup
f 1/22/1 2/26/2 5/25/3 4/18/4
f 2/26/2 3/20/5 6/21/6 5/25/3
s 2
f 4/4/7 5/3/8 8/24/9 7/15/10
f 5/3/8 6/6/11 9/9/12 8/24/9
s 3
f 7/8/13 8/7/14 11/23/15 10/17/16
f 8/7/14 9/13/17 12/14/18 11/23/15
s 4
f 10/11/19 11/10/20 2/2/21 1/1/22
f 11/10/20 12/12/23 3/5/24 2/2/21
s off
f 3/5/25 12/12/26 9/9/27 6/6/28
f 10/11/29 1/1/30 4/19/31 7/16/32
